<svg xmlns="http://www.w3.org/2000/svg" viewBox="0 0 162.9 101"><defs><style>.e1782e7c-84bc-4457-b86a-09d827223136,.e304b841-7a75-44e0-a882-afdda9057447,.fcf6c764-c7aa-4f04-8b0a-dee12b692a33{fill:none;}.e304b841-7a75-44e0-a882-afdda9057447,.fcf6c764-c7aa-4f04-8b0a-dee12b692a33,.ffdc56d3-6e21-422b-b6ee-75151268f062{stroke:#bf5700;}.e1782e7c-84bc-4457-b86a-09d827223136,.e304b841-7a75-44e0-a882-afdda9057447,.e6d787ba-55df-4a92-8e5e-e9eb928c5fa3,.fcf6c764-c7aa-4f04-8b0a-dee12b692a33,.ffdc56d3-6e21-422b-b6ee-75151268f062{stroke-miterlimit:10;}.e304b841-7a75-44e0-a882-afdda9057447{stroke-dasharray:1.03 2.05;}.e1782e7c-84bc-4457-b86a-09d827223136{stroke:#cccbca;}.e6d787ba-55df-4a92-8e5e-e9eb928c5fa3{fill:#bf5700;stroke:#fff;}.ffdc56d3-6e21-422b-b6ee-75151268f062{fill:#fff;}</style></defs><title>tris</title><g id="a7f29672-4dff-4866-811a-393950a2ebe9" data-name="Layer 2"><g id="f12d7c3b-8d89-4e98-9263-1b039853f63c" data-name="Layer 1"><path class="fcf6c764-c7aa-4f04-8b0a-dee12b692a33" d="M62.3,18.23l.42.25"/><path class="e304b841-7a75-44e0-a882-afdda9057447" d="M64.44,19.61a26.33,26.33,0,0,1-.85,43.55"/><path class="fcf6c764-c7aa-4f04-8b0a-dee12b692a33" d="M62.72,63.71l-.43.25"/><path class="e1782e7c-84bc-4457-b86a-09d827223136" d="M46.78,70.46a29.37,29.37,0,1,1,0-58.73"/><path class="fcf6c764-c7aa-4f04-8b0a-dee12b692a33" d="M67.08,5.93a40.6,40.6,0,1,1,20.3,75.76"/><path class="e1782e7c-84bc-4457-b86a-09d827223136" d="M67.08,76.26a40.61,40.61,0,0,1,0-70.33"/><path class="fcf6c764-c7aa-4f04-8b0a-dee12b692a33" d="M87.38,81.69a40.44,40.44,0,0,1-20.3-5.43"/><circle class="e6d787ba-55df-4a92-8e5e-e9eb928c5fa3" cx="46.78" cy="41.09" r="2.44"/><circle class="ffdc56d3-6e21-422b-b6ee-75151268f062" cx="87.38" cy="41.09" r="4.06"/><line class="e1782e7c-84bc-4457-b86a-09d827223136" x1="42.31" y1="41.09" y2="41.09"/><line class="e1782e7c-84bc-4457-b86a-09d827223136" x1="113.74" y1="71.04" x2="91.44" y2="45.71"/><circle class="e6d787ba-55df-4a92-8e5e-e9eb928c5fa3" cx="114.16" cy="71.52" r="1.72"/></g></g></svg>