<svg xmlns="http://www.w3.org/2000/svg" viewBox="0 0 103.91 87.7"><defs><style>.a9d7632f-875a-41f9-804f-1eccd4aec674,.af1add8c-336e-4b1b-9b65-fba27f1728c2,.b8c841bf-7a28-46a0-a0f3-a3f8a01555f8,.f791b827-1a3f-4333-a52e-003266c42b20{fill:none;}.a9d7632f-875a-41f9-804f-1eccd4aec674,.b8c841bf-7a28-46a0-a0f3-a3f8a01555f8,.f791b827-1a3f-4333-a52e-003266c42b20{stroke:#cccbca;}.a9d7632f-875a-41f9-804f-1eccd4aec674,.af1add8c-336e-4b1b-9b65-fba27f1728c2,.b8c841bf-7a28-46a0-a0f3-a3f8a01555f8,.e36762d6-ba48-4d97-93c4-3960310940c0,.f27f46b6-2095-408b-bd4d-b7132ca61fd5,.f791b827-1a3f-4333-a52e-003266c42b20{stroke-miterlimit:10;}.af1add8c-336e-4b1b-9b65-fba27f1728c2,.f27f46b6-2095-408b-bd4d-b7132ca61fd5{stroke:#bf5700;}.f27f46b6-2095-408b-bd4d-b7132ca61fd5{fill:#fff;}.a9d7632f-875a-41f9-804f-1eccd4aec674{stroke-dasharray:0.96 1.93;}.b8c841bf-7a28-46a0-a0f3-a3f8a01555f8{stroke-dasharray:0.89 1.78;}.e36762d6-ba48-4d97-93c4-3960310940c0{fill:#bf5700;stroke:#fff;}</style></defs><title>heart</title><g id="ec1aea32-9a37-4b31-9dfb-ecbfd3a378f7" data-name="Layer 2"><g id="e379ac28-1668-4291-a369-e70ec1f16bdf" data-name="Layer 1"><path class="f791b827-1a3f-4333-a52e-003266c42b20" d="M51.33,11.68C56.87,5,61.7.5,71.77.5"/><path class="af1add8c-336e-4b1b-9b65-fba27f1728c2" d="M37.35,76.29C15.73,58.11,7.79,43.1,6.83,30.56v-5.2C8.06,9.74,18.14,1.58,26.86.71c1.43-.14,2.77-.21,4-.21C41,.5,45.8,5,51.33,11.68"/><line class="af1add8c-336e-4b1b-9b65-fba27f1728c2" x1="41.33" y1="79.52" x2="41.33" y2="44.97"/><path class="af1add8c-336e-4b1b-9b65-fba27f1728c2" d="M91.29,46.09c-5.9,11.75-18,25.3-40,41-2-1.4-5.61-4.29-7.41-5.65"/><path class="f791b827-1a3f-4333-a52e-003266c42b20" d="M71.77.5c1.26,0,2.6.07,4,.21,8.72.87,18.8,9,20,24.65v5.2a37,37,0,0,1-1.47,7.83"/><path class="f27f46b6-2095-408b-bd4d-b7132ca61fd5" d="M41.33,42a10,10,0,1,1,10,10"/><line class="af1add8c-336e-4b1b-9b65-fba27f1728c2" x1="51.33" y1="41.97" x2="103.91" y2="41.97"/><path class="f791b827-1a3f-4333-a52e-003266c42b20" d="M76,46.09c0,.16,0,.33-.09.49"/><path class="a9d7632f-875a-41f9-804f-1eccd4aec674" d="M75.49,48.46A25,25,0,0,1,51.33,67a25.91,25.91,0,0,1-3.87-.3"/><path class="f791b827-1a3f-4333-a52e-003266c42b20" d="M46.51,66.51l-.49-.1"/><path class="f791b827-1a3f-4333-a52e-003266c42b20" d="M26.9,47.32A25.42,25.42,0,0,1,26.33,42,25,25,0,0,1,75.7,36.35"/><path class="f791b827-1a3f-4333-a52e-003266c42b20" d="M37.44,62.76,37,62.48"/><path class="b8c841bf-7a28-46a0-a0f3-a3f8a01555f8" d="M35.6,61.41a25.64,25.64,0,0,1-4.83-5.2"/><path class="f791b827-1a3f-4333-a52e-003266c42b20" d="M30.28,55.47,30,55"/><circle class="e36762d6-ba48-4d97-93c4-3960310940c0" cx="51.33" cy="41.97" r="1.72"/><line class="af1add8c-336e-4b1b-9b65-fba27f1728c2" x1="51.33" y1="51.97" y2="51.97"/></g></g></svg>