<svg xmlns="http://www.w3.org/2000/svg" viewBox="0 0 40 40"><defs><style>.ea2ec0ac-1557-425a-957a-e51e95463f16{fill:#bf5700;fill-rule:evenodd;}</style></defs><title>Asset 1</title><g id="afe64db4-d11e-4f85-9c19-0318da3b2d82" data-name="Layer 2"><g id="f87f62ae-5e7c-4277-807b-57603086142a" data-name="Layer 1"><path class="ea2ec0ac-1557-425a-957a-e51e95463f16" d="M20,38A17.92,17.92,0,0,1,7.25,32.69,4.81,4.81,0,0,0,9,33a5.09,5.09,0,0,0,3.33-1.19,3.28,3.28,0,0,1,4.32,0,5.27,5.27,0,0,0,6.67,0,3.29,3.29,0,0,1,4.32,0A5.12,5.12,0,0,0,31,33a4.89,4.89,0,0,0,1.77-.31A18,18,0,0,1,20,38M20,2A17.91,17.91,0,0,1,32.86,7.43a5.81,5.81,0,0,0-1.17.79,2.56,2.56,0,0,1-3.68,0,4.54,4.54,0,0,0-6.19,0,2.55,2.55,0,0,1-3.67,0,4.52,4.52,0,0,0-6.18,0A2.52,2.52,0,0,1,10.13,9a2.48,2.48,0,0,1-1.82-.78,6.44,6.44,0,0,0-1.17-.79A17.91,17.91,0,0,1,20,2M35.3,19.15a4.52,4.52,0,0,1-5.28,0,6.53,6.53,0,0,0-7.4,0A4.18,4.18,0,0,1,20,20a4.17,4.17,0,0,1-2.63-.85A6.12,6.12,0,0,0,13.65,18,6.15,6.15,0,0,0,10,19.15,4.12,4.12,0,0,1,7.32,20a4.17,4.17,0,0,1-2.62-.84,6.35,6.35,0,0,0-2.6-1.07,17.94,17.94,0,0,1,3.65-9A2.9,2.9,0,0,1,7,9.78a4.54,4.54,0,0,0,6.19,0,2.54,2.54,0,0,1,3.66,0,4.54,4.54,0,0,0,6.19,0,2.55,2.55,0,0,1,3.67,0,4.55,4.55,0,0,0,6.2,0,2.79,2.79,0,0,1,1.3-.73,17.85,17.85,0,0,1,3.65,9,6.43,6.43,0,0,0-2.6,1.06m-2.15,11a3.3,3.3,0,0,1-4.33,0,5.28,5.28,0,0,0-6.68,0,3.27,3.27,0,0,1-4.31,0,5.27,5.27,0,0,0-6.67,0A3.15,3.15,0,0,1,9,31a3.15,3.15,0,0,1-2.16-.81A5.36,5.36,0,0,0,4.49,29.1a17.91,17.91,0,0,1-2.48-9,4.88,4.88,0,0,1,1.62.73A6,6,0,0,0,7.32,22,6.12,6.12,0,0,0,11,20.85,4.17,4.17,0,0,1,13.65,20a4.12,4.12,0,0,1,2.63.85A6.15,6.15,0,0,0,20,22a6.1,6.1,0,0,0,3.7-1.15,4.51,4.51,0,0,1,5.27,0,6.54,6.54,0,0,0,7.41,0A4.75,4.75,0,0,1,38,20.11a17.81,17.81,0,0,1-2.48,9,5.3,5.3,0,0,0-2.36,1.09M20,0A20,20,0,1,0,40,20,20,20,0,0,0,20,0"/></g></g></svg>