<svg xmlns="http://www.w3.org/2000/svg" viewBox="0 0 40 40"><defs><style>.b55dfddd-ca1a-4c75-a584-c60169e3993b{fill:#bf5700;fill-rule:evenodd;}</style></defs><title>Asset 1</title><g id="a82e1bf1-98ff-4b17-8889-dc4fa4d7ed39" data-name="Layer 2"><g id="b5f067a9-dfff-435a-80ea-6bd35e61ff37" data-name="Layer 1"><path class="b55dfddd-ca1a-4c75-a584-c60169e3993b" d="M21.52,9a1,1,0,0,1-1,1,1,1,0,0,1,0-2A1,1,0,0,1,21.52,9Zm8,0a1,1,0,0,1-1,1,1,1,0,1,1,0-2A1,1,0,0,1,29.52,9Zm4,0a1,1,0,0,1-1,1,1,1,0,1,1,0-2A1,1,0,0,1,33.52,9Zm-8,0a1,1,0,0,1-1,1,1,1,0,1,1,0-2A1,1,0,0,1,25.52,9Zm-16,0a1,1,0,0,1-1,1,1,1,0,0,1,0-2A1,1,0,0,1,9.52,9Zm4,0a1,1,0,0,1-1,1,1,1,0,0,1,0-2A1,1,0,0,1,13.52,9Zm4,0a1,1,0,1,1-1-1A1,1,0,0,1,17.5,9ZM35,30H5a17.91,17.91,0,0,1-3-9H38A17.91,17.91,0,0,1,35,30ZM20,38A18,18,0,0,1,6.62,32H33.38A18,18,0,0,1,20,38ZM20,2A18,18,0,0,1,38,19H2.05A18,18,0,0,1,20,2ZM40,19A20,20,0,0,0,3.83,8.27a1,1,0,0,0-.12.17A19.79,19.79,0,0,0,.05,19H0v2H.05A20,20,0,0,0,40,21h0V19Z"/></g></g></svg>