<svg xmlns="http://www.w3.org/2000/svg" viewBox="0 0 40 40"><defs><style>.fd860dbf-98ec-4199-9c4d-dd854d28d749{fill:#bf5700;fill-rule:evenodd;}</style></defs><title>Asset 1</title><g id="a1642a23-b642-4a60-a0f8-3a88c5eafab3" data-name="Layer 2"><g id="b364f277-b9f9-44a6-9d07-947bb31029dc" data-name="Layer 1"><path class="fd860dbf-98ec-4199-9c4d-dd854d28d749" d="M20,38c-.33,0-.65,0-1,0L38,19c0,.33,0,.65,0,1A18,18,0,0,1,20,38ZM20,2c.33,0,.65,0,1,0L2.05,21c0-.33,0-.65,0-1A18,18,0,0,1,20,2ZM33.4,8a17.93,17.93,0,0,1,4.25,8.47L16.49,37.65A17.93,17.93,0,0,1,8,33.4ZM6.6,32a17.93,17.93,0,0,1-4.25-8.47L23.51,2.35A17.93,17.93,0,0,1,32,6.6ZM20,0A20,20,0,1,0,40,20,20,20,0,0,0,20,0Z"/></g></g></svg>