<svg xmlns="http://www.w3.org/2000/svg" viewBox="0 0 40 40"><defs><style>.a7645672-4a0d-490f-8f51-c59eeaccaeb1{fill:#bf5700;fill-rule:evenodd;}</style></defs><title>Asset 1</title><g id="a2264b8c-394c-4d1e-992d-b08a7112b524" data-name="Layer 2"><g id="b68dfd59-d028-48ca-8295-34303741b445" data-name="Layer 1"><path class="a7645672-4a0d-490f-8f51-c59eeaccaeb1" d="M14,12a2,2,0,0,1-4,0h0a2,2,0,0,1,4,0m7,26V2.05a17.89,17.89,0,0,1,6,1.37V18a7,7,0,0,0,7,7h3.28A18,18,0,0,1,21,38m-8-1.37V26a7,7,0,0,0-7-7H2.05A18,18,0,0,1,19,2.05V38a17.89,17.89,0,0,1-6-1.37M2.05,21H6a5,5,0,0,1,5,5v9.56A18,18,0,0,1,2.05,21m36-1a18.59,18.59,0,0,1-.27,3H34a5,5,0,0,1-5-5V4.44A18,18,0,0,1,38,20m2,0A20,20,0,0,0,29,2.16V2h-.34A19.8,19.8,0,0,0,21,.05V0H19V.05A20,20,0,0,0,19,40v0h2v0A20,20,0,0,0,40,20"/></g></g></svg>